<svg width="21" height="21" viewBox="0 0 21 21" fill="none" xmlns="http://www.w3.org/2000/svg">
<path d="M20.8184 19.929L15.7139 14.8257C17.0832 13.2519 17.9122 11.1984 17.9122 8.9541C17.9122 4.01375 13.8929 0 8.95609 0C4.01464 0 0 4.0184 0 8.9541C0 13.8898 4.01929 17.9082 8.95609 17.9082C11.2009 17.9082 13.2548 17.0794 14.829 15.7104L19.9335 20.8137C20.0546 20.9348 20.2176 21 20.3759 21C20.5343 21 20.6973 20.9395 20.8184 20.8137C21.0605 20.5716 21.0605 20.1712 20.8184 19.929ZM1.25283 8.9541C1.25283 4.70754 4.70858 1.25721 8.95143 1.25721C13.1989 1.25721 16.65 4.7122 16.65 8.9541C16.65 13.196 13.1989 16.6557 8.95143 16.6557C4.70858 16.6557 1.25283 13.2007 1.25283 8.9541Z" fill="#D9D9D9"/>
</svg>
